<svg width="161" height="140" viewBox="0 0 161 140" fill="none" xmlns="http://www.w3.org/2000/svg">
<path d="M36.2959 26.0309C36.796 25.3313 36.896 24.9315 36.5959 24.5317C35.5958 23.6322 31.3952 24.032 26.5946 24.6317C21.6939 25.2313 19.2935 25.1314 18.7935 23.7322C18.6935 23.5323 18.6935 23.3324 18.6935 23.0326C18.6935 21.1336 26.0945 20.1342 30.095 17.1359C30.6951 16.6362 31.0952 16.1365 31.1952 15.6367C31.5953 14.0377 29.2949 12.4386 27.2947 11.4391C17.8934 7.44139 9.19215 1.44479 3.6914 -2.85278C2.39121 -3.75227 1.09103 -4.0521 -0.509186 -4.35193C-1.80937 -4.65176 -2.90952 -4.45188 -4.50974 -4.55182C-4.50974 -4.55182 -5.60989 -4.55182 -6.41 -4.45188C-6.91006 -4.35193 -8.91035 -4.0521 -9.61044 -3.85221C-21.7121 -0.953856 -33.2137 3.64354 -43.8152 10.1399L-45.5154 11.2392C-51.2162 14.8372 -56.917 18.3352 -61.9177 22.9326C-66.8183 27.3301 -74.0193 33.5266 -75.9196 36.5249C-76.2196 37.0246 -76.1196 37.5244 -75.6196 37.8242C-65.9182 43.1212 -49.2159 50.1172 -36.0141 52.1161L-34.0138 52.4159C-21.112 54.115 -8.21025 53.8151 4.4915 51.4165C5.09158 51.3165 7.39191 50.517 8.29203 50.0173C9.19215 49.5176 9.69223 49.2177 10.9924 48.3182C17.1933 44.2206 28.4948 36.1251 36.2959 26.0309C36.2959 26.1308 36.2959 26.1308 36.2959 26.0309Z" fill="#EFF1F3"/>
<path d="M33.1956 7.54137C36.3961 8.64075 34.1958 3.64358 31.4954 -2.15314C29.1951 -7.25025 28.695 -9.54894 30.5953 -10.0487C32.3955 -10.5484 35.596 -3.95212 39.6965 -1.05376C42.5969 1.04506 43.7971 -2.7528 44.2972 -5.65116C45.1973 -15.8454 48.1977 -25.8397 50.498 -32.436C50.9981 -33.8352 50.8981 -35.2344 50.698 -36.8335C50.498 -38.1328 50.098 -39.1322 49.5979 -40.6313C49.5979 -40.6313 49.1978 -41.6308 48.8978 -42.4303C48.6978 -42.8301 47.6976 -44.6291 47.3976 -45.3287C40.8967 -55.9227 32.8956 -65.4173 23.4943 -73.5127L21.8941 -74.812C16.7934 -79.1096 11.5926 -83.4071 5.69182 -86.8052C0.0910511 -90.1033 -8.11008 -95.1005 -11.5106 -96C-12.1106 -96.0999 -12.5107 -95.9001 -12.6107 -95.3004C-14.711 -84.4066 -16.2112 -66.4167 -14.0109 -53.2242L-13.7109 -51.2253C-11.4105 -38.4326 -7.00993 -26.2395 -0.909086 -14.9459C-0.609045 -14.4462 0.891162 -12.4473 1.69127 -11.7477C2.39137 -11.0481 2.89144 -10.6483 4.19162 -9.6489C9.8924 -5.0515 21.194 3.24381 33.1956 7.54137C33.0956 7.44143 33.1956 7.44143 33.1956 7.54137Z" fill="#EFF1F3"/>
<path d="M124.008 -35.4343L124.708 -37.3332C127.208 -43.5297 129.709 -49.8262 131.109 -56.4224C132.409 -62.9187 134.71 -72.1135 134.509 -75.6116C134.509 -76.2112 134.109 -76.511 133.509 -76.511C122.508 -75.1118 104.905 -71.0142 93.0037 -64.8177L91.2035 -63.9182C79.8019 -57.7217 69.5005 -49.8262 60.6993 -40.5314C60.2992 -40.1316 58.899 -38.0328 58.499 -37.1333C57.9989 -36.2339 57.7989 -35.6342 57.2988 -34.135C54.6985 -27.2389 50.2978 -14.0464 49.8978 -1.35361V-1.25366C49.7978 2.14441 53.8983 -1.5535 58.599 -5.85107C62.6996 -9.64892 64.7998 -10.8482 65.9 -9.14919C67.0002 -7.5501 61.5994 -2.45299 60.0992 2.3443C59.0991 5.74237 62.7996 5.74237 65.7 5.3426C75.7014 2.94395 86.3028 2.74407 93.3038 2.94395C94.804 2.94395 96.1042 2.44424 97.5044 1.84458C98.7045 1.24492 99.5046 0.545311 100.805 -0.354179C100.805 -0.354179 101.605 -1.05378 102.305 -1.5535C102.705 -1.85332 104.005 -3.35249 104.505 -3.8522C112.606 -13.4468 119.207 -24.0408 124.008 -35.4343Z" fill="#EFF1F3"/>
<path d="M160.913 68.207C156.213 58.2127 146.811 42.7215 137.31 33.3268L135.91 31.9276C126.509 22.9327 115.807 15.6368 104.206 10.1399C103.705 9.84008 101.305 9.14048 100.205 9.04054C99.2048 8.94059 98.6047 8.84065 97.0045 8.84065C89.6035 8.44088 75.6016 8.34093 63.3999 11.9389C63.3999 11.9389 63.3999 11.9389 63.2999 11.9389C59.9994 12.9383 64.8001 15.6368 70.4008 18.835C75.3015 21.5335 77.0018 23.1326 75.8016 24.7317C74.6014 26.2308 68.1005 22.7328 63.0998 22.8327C59.5994 22.9327 60.6995 26.4307 61.9997 29.0292C67.3004 37.8242 70.8009 47.8186 72.8012 54.5148C73.2012 56.0139 74.1014 57.0134 75.2015 58.2127C76.1016 59.2121 77.1018 59.7118 78.3019 60.7113C78.3019 60.7113 79.2021 61.3109 79.9022 61.7107C80.3022 61.9106 82.2025 62.8101 82.8026 63.1099C94.3041 67.9072 106.406 70.9055 118.708 71.9049L120.708 72.0049C127.409 72.4047 134.11 72.9044 140.911 72.2048C147.411 71.5052 156.913 70.7056 160.213 69.5063C160.913 69.2065 161.113 68.7068 160.913 68.207Z" fill="#EFF1F3"/>
<path d="M69.3003 67.0077C69.4003 66.4081 69.3003 63.9095 69.1003 62.91C68.9002 61.9106 68.8002 61.311 68.3001 59.8118C66.3999 52.7158 62.0993 39.4233 54.9983 28.9293C54.9983 28.9293 54.9983 28.9293 54.9983 28.8293C53.098 26.0309 51.8979 31.3279 50.6977 37.7243C49.5976 43.2212 48.5974 45.42 46.7972 44.7203C44.9969 44.1207 46.3971 36.8248 44.6969 32.0275C43.5967 28.7294 40.4963 30.9282 38.496 32.927C31.7951 40.7226 23.2939 47.119 17.5932 51.0168C16.293 51.9163 15.5929 53.0157 14.7928 54.4149C14.0927 55.6142 13.8926 56.6136 13.3926 58.1128C13.3926 58.1128 13.0925 59.1122 12.8925 60.0117C12.7925 60.5114 12.4924 62.5103 12.4924 63.2099C11.4923 75.6029 12.3924 87.9958 15.1928 100.089L15.6929 102.088C17.2931 108.584 18.8933 115.081 21.6937 121.377C24.3941 127.374 28.0946 136.169 30.2949 138.867C30.695 139.267 31.195 139.367 31.5951 138.967C39.6962 131.371 51.4978 117.679 57.4986 105.686L58.3988 103.887C63.9995 92.1935 67.7001 79.7005 69.3003 67.0077Z" fill="#EFF1F3"/>
<path d="M38.2962 4.94286C42.8968 10.8395 47.5975 14.7373 47.5975 14.7373L46.9974 15.337C46.9974 15.337 42.4968 11.739 37.8961 5.24269C36.0959 2.54421 36.2959 2.24438 38.2962 4.94286Z" fill="#EFF1F3"/>
<path d="M35.3959 20.1342C42.3969 17.6357 47.5976 14.3375 47.5976 14.3375L47.9977 15.0371C47.9977 15.0371 43.197 18.2353 35.596 20.634C32.4955 21.5335 32.1955 21.2336 35.3959 20.1342Z" fill="#EFF1F3"/>
<path d="M48.8979 27.8299C48.5979 20.434 47.0977 14.5374 47.0977 14.5374L47.8978 14.4374C47.8978 14.4374 49.498 19.9343 49.398 27.9298C49.398 31.028 48.9979 31.128 48.8979 27.8299Z" fill="#EFF1F3"/>
<path d="M60.4992 17.2359C53.2982 15.237 47.2974 14.7373 47.2974 14.7373L47.3974 13.9377C47.3974 13.9377 53.1982 14.1376 60.6992 16.7362C63.6996 17.7356 63.6996 18.1354 60.4992 17.2359Z" fill="#EFF1F3"/>
<path d="M53.9984 3.04389C49.7979 9.24039 47.5976 14.8372 47.5976 14.8372L46.8975 14.5374C46.8975 14.5374 48.8977 9.14044 53.6984 2.74406C55.4986 0.245479 55.7987 0.345422 53.9984 3.04389Z" fill="#EFF1F3"/>
</svg>
