<svg width="135" height="105" viewBox="0 0 135 105" fill="none" xmlns="http://www.w3.org/2000/svg">
<path d="M99.2291 70.2999C99.5276 69.8999 99.6271 69.5999 99.4281 69.3999C98.9306 68.8999 96.443 69.0999 93.7564 69.3999C90.9704 69.6999 89.6768 69.6999 89.3783 68.8999C89.3783 68.7999 89.2788 68.6999 89.2788 68.4999C89.2788 67.3999 93.4579 66.8999 95.7465 65.1999C96.1445 64.8999 96.3435 64.6999 96.3435 64.3999C96.5425 63.4999 95.2489 62.5999 94.1544 61.9999C88.8808 59.7999 83.9057 56.2999 80.8211 53.8999C80.1246 53.3999 79.4281 53.1999 78.5326 52.9999C77.836 52.8999 77.1395 52.8999 76.3435 52.8999C76.3435 52.8999 75.7464 52.8999 75.2489 52.9999C74.9504 52.9999 73.8559 53.1999 73.4579 53.2999C66.5922 54.8999 60.1246 57.5999 54.1545 61.1999L53.1594 61.7999C49.9753 63.7999 46.6917 65.7999 43.9056 68.3999C41.1196 70.8999 37.04 74.3998 35.9454 76.0998C35.7464 76.3998 35.846 76.6998 36.1445 76.7998C39.3285 78.5998 43.9057 80.6998 48.6818 82.2998C46.5923 83.7998 44.6022 85.4998 42.9106 87.2998C42.8111 87.3998 42.3137 88.0999 42.2142 88.3999C42.1147 88.6999 42.0151 88.8999 41.8161 89.2999C41.0201 91.3999 39.6271 95.5998 39.5276 99.4998C39.5276 100.6 40.7216 99.3998 42.2142 98.0998C43.5077 96.8998 44.1047 96.4998 44.5027 97.0998C44.8012 97.5998 43.2092 99.1998 42.7117 100.7C42.4132 101.7 43.5076 101.8 44.4032 101.6C47.4877 100.9 50.7714 100.8 52.9604 100.9C53.4579 100.9 53.8559 100.8 54.2539 100.5C54.6519 100.3 54.8509 100.1 55.249 99.7999C55.249 99.7999 55.5475 99.5999 55.7465 99.3999C55.846 99.2999 56.244 98.7998 56.443 98.6998C58.9306 95.7998 61.0201 92.4999 62.5126 88.8999L62.7116 88.2998C63.1097 87.3998 63.4081 86.3999 63.8061 85.4999C69.6768 85.8999 75.647 85.5999 81.4181 84.4999C81.7166 84.3999 83.1097 83.9999 83.6072 83.6999C84.1047 83.3999 84.4032 83.1999 85.1992 82.6999C88.3833 80.5999 94.7515 75.9998 99.2291 70.2999Z" fill="#F9F9FA"/>
<path d="M70.9703 26.3999C72.2639 33.5999 74.7514 40.5999 78.234 46.9998C78.433 47.2998 79.229 48.3998 79.7266 48.7998C80.1246 49.1998 80.4231 49.3998 81.1196 49.9998C84.4032 52.5998 90.6719 57.2999 97.4381 59.6998C97.4381 59.6998 97.438 59.6998 97.5375 59.6998C99.3286 60.2999 98.1346 57.4999 96.5425 54.1999C95.249 51.2999 94.9505 49.9999 96.045 49.6999C97.04 49.3999 98.8311 53.1998 101.219 54.7998C102.911 55.9998 103.508 53.8999 103.806 52.1999C104.304 46.3999 105.995 40.6999 107.289 36.9999C107.587 36.1999 107.488 35.3999 107.388 34.4999C107.289 33.7999 106.99 33.1998 106.791 32.2998C106.791 32.2998 106.592 31.6998 106.393 31.2998C106.294 31.0998 105.697 29.9999 105.498 29.6999C101.816 23.6999 97.3385 18.2999 92.0649 13.6999L91.1694 12.9999C88.2838 10.5999 85.3983 8.09989 82.0152 6.1999C78.8311 4.3999 74.1544 1.49989 72.2639 0.999888C71.9654 0.899888 71.6669 1.09991 71.6669 1.39991C70.4728 7.59991 69.6768 17.7999 70.8709 25.2999L70.9703 26.3999Z" fill="#F9F9FA"/>
<path d="M106.891 54.7998C106.791 56.6998 109.179 54.6998 111.866 52.1998C114.155 50.0998 115.349 49.3998 115.946 50.2998C116.543 51.1998 113.558 54.0998 112.662 56.7998C112.065 58.6998 114.155 58.6998 115.846 58.4998C121.518 57.1998 127.488 57.0998 131.368 57.1998C132.264 57.1998 132.961 56.8997 133.757 56.5997C134.453 56.2997 134.851 55.8998 135.647 55.3998C135.647 55.3998 136.145 54.9998 136.443 54.6998C136.642 54.4998 137.438 53.6998 137.737 53.3998C142.314 48.0998 145.995 42.0998 148.682 35.5998L149.08 34.4998C150.473 30.9998 151.965 27.3998 152.761 23.6998C153.458 19.9998 154.752 14.7998 154.652 12.7998C154.652 12.4998 154.354 12.2998 154.055 12.2998C147.886 13.0998 137.936 15.3998 131.169 18.8998L130.174 19.3998C123.707 22.8998 117.936 27.3998 112.961 32.6998C112.762 32.8998 111.965 34.0998 111.667 34.5998C111.468 35.0998 111.269 35.3998 110.97 36.2998C109.577 39.9998 107.09 47.4998 106.891 54.7998Z" fill="#F9F9FA"/>
<path d="M169.478 94.1998C166.791 88.4998 161.518 79.7998 156.145 74.3999L155.349 73.5998C150.075 68.4998 144.005 64.3999 137.438 61.1999C137.14 61.0999 135.747 60.6998 135.249 60.5998C134.652 60.4998 134.354 60.4998 133.458 60.4998C129.279 60.2998 121.418 60.2998 114.553 62.2998C112.761 62.7998 115.349 64.3999 118.533 66.1998C121.319 67.7998 122.314 68.5998 121.617 69.4998C120.921 70.3998 117.339 68.3999 114.453 68.3999C112.463 68.3999 113.16 70.3999 113.856 71.8999C116.841 76.8999 118.831 82.4998 119.926 86.2998C120.125 87.0998 120.722 87.6998 121.319 88.3998C121.816 88.9998 122.413 89.2999 123.11 89.7999C123.11 89.7999 123.607 90.0998 124.005 90.3998C124.204 90.4998 125.299 90.9998 125.697 91.1998C132.164 93.8998 139.03 95.5998 145.995 96.1998L147.09 96.2999C150.871 96.5999 154.652 96.7998 158.433 96.3998C162.115 95.9998 167.488 95.5999 169.378 94.7999C169.478 94.6999 169.577 94.3998 169.478 94.1998Z" fill="#F9F9FA"/>
<path d="M117.239 89.3999C116.145 85.3999 113.756 77.7999 109.677 71.8999C108.582 70.2999 107.985 73.2999 107.189 76.8999C106.592 79.9999 105.995 81.1999 105 80.8999C104.005 80.4999 104.702 76.3999 103.806 73.6999C103.209 71.7999 101.418 72.9999 100.324 74.1999C96.5425 78.5999 91.7664 82.1998 88.4828 84.4998C87.7863 84.9998 87.3882 85.6999 86.8907 86.3999C86.4927 87.0999 86.3932 87.6998 86.0947 88.4998C86.0947 88.4998 85.8957 89.0998 85.7962 89.5998C85.6967 89.8998 85.5972 90.9999 85.5972 91.3999C85.0002 98.3999 85.4977 105.5 87.0897 112.3L87.3882 113.4C88.2838 117.1 89.1793 120.8 90.7714 124.3C92.2639 127.7 94.3534 132.7 95.647 134.2C95.846 134.5 96.1445 134.5 96.443 134.3C101.02 130 107.687 122.2 111.07 115.4L111.567 114.4C114.751 107.8 116.841 100.7 117.737 93.4998C117.737 93.1998 117.737 91.7998 117.637 91.1998C117.637 90.5998 117.538 90.1999 117.239 89.3999Z" fill="#F9F9FA"/>
<path d="M112.96 64.9999C109.478 63.7999 106.692 63.4999 105.796 63.3999C106.294 62.3999 107.388 59.8999 109.179 57.1999C110.274 55.5999 110.075 55.5999 108.98 56.9999C106.692 59.9999 105.597 62.6999 105.299 63.4999C104.503 62.7999 102.413 60.8999 100.423 58.2999C99.2291 56.7999 99.1296 56.9999 100.224 58.3999C102.314 61.3999 104.403 63.2999 105.1 63.8999C104.105 64.4999 101.717 65.7999 98.7316 66.8999C96.9405 67.4999 97.1395 67.6999 98.8311 67.1999C102.314 66.0999 104.702 64.6999 105.498 64.1999C105.697 65.2999 106.294 67.9999 106.393 71.2999C106.493 73.1999 106.692 73.0999 106.692 71.2999C106.692 67.5999 106.095 64.7999 105.896 63.8999C106.99 63.9999 109.776 64.2999 112.96 65.2999C114.652 65.7999 114.652 65.5999 112.96 64.9999Z" fill="#F9F9FA"/>
<path d="M38.5326 42.0999C39.8261 42.7999 41.9157 43.6999 43.6072 43.9999H43.9057C45.5972 44.1999 47.2888 44.1999 48.8808 43.8999C48.9803 43.8999 49.2788 43.7999 49.3783 43.6999C49.4778 43.5999 49.5774 43.5999 49.7764 43.4999C50.5724 42.9999 52.0649 41.8999 53.06 40.5999C53.1595 40.4999 53.1595 40.4999 53.06 40.3999C52.9605 40.2999 52.3635 40.2999 51.7664 40.3999C51.1694 40.4999 50.8709 40.4999 50.7714 40.2999V40.1999C50.7714 39.9999 51.7664 39.7999 52.2639 39.3999C52.3635 39.2999 52.3634 39.2999 52.3634 39.1999C52.3634 38.9999 52.1644 38.7999 51.8659 38.6999C50.6719 38.1999 49.4779 37.3999 48.7814 36.7999C48.5823 36.6999 48.4828 36.5999 48.2838 36.5999C48.0848 36.5999 47.9853 36.5999 47.7863 36.5999C47.7863 36.5999 47.6868 36.5999 47.4878 36.5999C47.3883 36.5999 47.1893 36.6999 47.0898 36.6999C45.4978 37.0999 44.0052 37.6999 42.7117 38.4999L42.5127 38.5999C41.8162 39.0999 41.0201 39.4999 40.4231 40.0999C39.8261 40.6999 38.8311 41.4999 38.6321 41.8999C38.4331 41.9999 38.4331 41.9999 38.5326 42.0999Z" fill="#F9F9FA"/>
<path d="M46.4928 30.4999C46.7913 32.1999 47.3884 33.6999 48.1844 35.1999C48.1844 35.2999 48.3834 35.4998 48.4829 35.5998C48.5824 35.6998 48.6819 35.6999 48.7814 35.8999C49.4779 36.4999 50.9704 37.5998 52.5624 38.0998C52.9604 38.1998 52.6619 37.5998 52.3634 36.7998C52.0649 36.0998 51.9654 35.7998 52.2639 35.7998C52.4629 35.6998 52.9605 36.5998 53.458 36.9998C53.856 37.2998 53.9555 36.7999 54.055 36.3999C54.1545 35.0999 54.5525 33.7999 54.851 32.8999C54.9505 32.6999 54.9505 32.4998 54.851 32.2998C54.851 32.0998 54.7515 31.9998 54.7515 31.7998C54.7515 31.7998 54.7515 31.6998 54.652 31.5998C54.652 31.4998 54.453 31.2999 54.453 31.1999C53.657 29.7999 52.5624 28.5999 51.3684 27.4999L51.1694 27.2999C50.4729 26.6999 49.8759 26.1999 49.0799 25.6999C48.3833 25.2999 47.2888 24.5999 46.8908 24.4999C46.7913 24.4999 46.7913 24.4999 46.7913 24.5999C46.4928 25.9998 46.2938 28.2998 46.5923 30.0998L46.4928 30.4999Z" fill="#F9F9FA"/>
<path d="M54.652 36.9998C54.652 37.3998 55.1495 36.9998 55.7465 36.3998C56.2441 35.8998 56.5426 35.7998 56.6421 35.9998C56.7416 36.1998 56.0451 36.8998 55.9456 37.4998C55.8461 37.8998 56.3436 37.8998 56.6421 37.8998C57.9356 37.5998 59.3286 37.5998 60.2241 37.5998C60.4231 37.5998 60.6221 37.4998 60.8211 37.4998C61.0201 37.3998 61.1197 37.2998 61.2192 37.1998C61.2192 37.1998 61.3187 37.0998 61.4182 36.9998C61.4182 36.9998 61.6172 36.7998 61.7167 36.6998C62.7117 35.4998 63.6072 34.0998 64.2042 32.5998L64.3037 32.3998C64.6022 31.5998 65.0003 30.7998 65.0998 29.8998C65.2988 29.0998 65.5973 27.8998 65.4978 27.3998C65.4978 27.2998 65.3983 27.2998 65.3983 27.2998C64.0052 27.4998 61.7167 27.9998 60.1247 28.7998L59.9256 28.8998C58.4331 29.6998 57.1396 30.6998 55.9456 31.8998C55.8461 31.9998 55.7466 32.1998 55.6471 32.2998C55.5476 32.3998 55.5475 32.4998 55.448 32.6998C55.3485 33.5998 54.7515 35.3998 54.652 36.9998Z" fill="#F9F9FA"/>
<path d="M61.2192 38.2999C61.1197 38.2999 61.0201 38.2999 60.8211 38.2999C59.8261 38.2999 58.0351 38.1999 56.5425 38.6999C56.1445 38.7999 56.7416 39.1999 57.4381 39.5999C58.0351 39.9999 58.3336 40.1999 58.1346 40.3999C57.9356 40.5999 57.1395 40.0999 56.5425 40.0999C56.045 40.0999 56.244 40.5999 56.443 40.8999C57.1396 41.9999 57.5375 43.2999 57.836 44.1999C57.9356 44.3999 58.0351 44.4999 58.1346 44.6999C58.2341 44.7999 58.3336 44.8999 58.5326 44.9999C58.5326 44.9999 58.6321 45.0999 58.7316 45.0999C58.8311 45.0999 59.0301 45.1999 59.1296 45.2999C60.6222 45.8999 62.2142 46.2999 63.8062 46.3999H64.1048C65.0003 46.4999 65.7963 46.4999 66.6918 46.3999C67.4878 46.2999 68.7814 46.1999 69.1794 45.9999C69.2789 45.9999 69.2789 45.8999 69.2789 45.7999C68.6819 44.4999 67.4878 42.4999 66.1943 41.2999L65.9953 41.0999C64.8013 39.8999 63.4082 38.9999 61.9157 38.2999C61.6172 38.4999 61.3187 38.3999 61.2192 38.2999Z" fill="#F9F9FA"/>
<path d="M50.4729 43.7998C50.2739 43.8998 50.1744 44.0999 50.0749 44.1999C49.9754 44.2999 49.9753 44.4999 49.8758 44.6999C49.8758 44.6999 49.8759 44.7999 49.7764 44.8999C49.7764 44.9999 49.7764 45.1998 49.6769 45.2998C49.5774 46.8998 49.6768 48.4998 50.0749 50.0998L50.1744 50.3999C50.3734 51.1999 50.5724 52.0999 50.9704 52.8999C51.3684 53.6999 51.7664 54.7998 52.0649 55.1998C52.0649 55.2998 52.1644 55.2998 52.2639 55.1998C53.259 54.1998 54.851 52.3999 55.647 50.8999L55.7465 50.6998C56.443 49.1999 56.9406 47.5999 57.1396 45.8999C57.1396 45.7999 57.1396 45.4999 57.1396 45.3999C57.1396 45.2999 57.1396 45.1998 57.04 44.9998C56.7415 44.0998 56.244 42.3999 55.3485 40.9999C55.1495 40.5999 54.9505 41.2999 54.7515 42.1999C54.652 42.8999 54.453 43.1998 54.254 43.0998C54.055 42.9998 54.1545 42.0999 53.9555 41.4999C53.856 41.0999 53.458 41.3998 53.1595 41.5998C52.3635 42.4998 51.2689 43.2998 50.4729 43.7998Z" fill="#F9F9FA"/>
<path d="M52.8609 39.7998C53.657 39.4998 54.254 39.1998 54.3535 39.0998C54.453 39.2998 54.5525 39.9998 54.5525 40.6998C54.5525 41.0998 54.652 41.0998 54.652 40.6998C54.652 39.7998 54.5525 39.1998 54.453 38.9998C54.652 38.9998 55.3485 39.0998 56.045 39.2998C56.443 39.3998 56.443 39.3998 56.045 39.1998C55.249 38.8998 54.652 38.8998 54.3535 38.7998C54.453 38.5998 54.7515 37.9998 55.1495 37.3999C55.3485 36.9999 55.3485 36.9999 55.1495 37.3999C54.652 38.0998 54.3535 38.6998 54.254 38.8998C54.055 38.6998 53.5575 38.2998 53.1595 37.6998C52.861 37.3998 52.861 37.3998 53.06 37.6998C53.5575 38.3998 54.055 38.7998 54.1545 38.9998C54.055 39.1998 53.458 39.4998 52.8609 39.7998C52.4629 39.8998 52.4629 39.9998 52.8609 39.7998Z" fill="#F9F9FA"/>
<path d="M35.1494 108.3C35.2489 108.2 35.2489 108.2 35.1494 108.3C35.3484 108.1 35.3485 107.9 35.249 107.8C34.9505 107.5 33.6569 107.6 32.1644 107.8C30.6718 108 29.8759 107.9 29.7764 107.5C29.7764 107.4 29.7764 107.4 29.7764 107.3C29.7764 106.7 32.0649 106.4 33.2589 105.5C33.4579 105.4 33.5574 105.2 33.5574 105C33.6569 104.5 32.9604 104 32.3634 103.7C29.4778 102.5 26.7912 100.6 25.0002 99.2999C24.6022 98.9999 24.2042 98.8999 23.7067 98.7999C23.3087 98.6999 23.0102 98.7999 22.5126 98.7999C22.5126 98.7999 22.2142 98.7999 21.9157 98.7999C21.8162 98.7999 21.1196 98.8999 20.9206 98.9999C17.1395 99.8999 13.5575 101.3 10.2739 103.4L9.77636 103.7C7.98532 104.8 6.19431 105.9 4.70177 107.3C3.20924 108.7 0.920659 110.6 0.323646 111.5C0.224143 111.7 0.22418 111.8 0.423184 111.9C3.40825 113.6 8.58236 115.7 12.662 116.4L13.2589 116.5C17.239 117 21.2191 116.9 25.1992 116.2C25.3982 116.2 26.0948 115.9 26.3933 115.8C26.6918 115.7 26.7913 115.5 27.2888 115.3C29.2788 113.9 32.7614 111.4 35.1494 108.3Z" fill="#F9F9FA"/>
<path d="M19.7266 84.1999C20.4231 88.1999 21.8161 91.9999 23.7067 95.4999C23.8062 95.6999 24.3037 96.2999 24.5027 96.4999C24.7017 96.6999 24.9007 96.7999 25.2988 97.0999C27.0898 98.4999 30.5724 101.1 34.254 102.4C35.249 102.8 34.5525 101.2 33.7565 99.3999C33.06 97.7999 32.8609 97.0999 33.4579 96.8999C34.0549 96.6999 35.05 98.7998 36.244 99.6998C37.1396 100.3 37.5375 99.1999 37.637 98.2999C37.9355 95.1 38.8311 91.9999 39.5276 89.9999C39.7266 89.5999 39.6271 89.0999 39.6271 88.5999C39.6271 88.1999 39.4281 87.8999 39.3286 87.3999C39.3286 87.3999 39.2291 87.0999 39.1296 86.7999C39.0301 86.6999 38.7316 86.0999 38.6321 85.8999C36.642 82.5999 34.1545 79.5999 31.2689 77.0999L30.7714 76.6999C29.1794 75.3999 27.5873 73.9999 25.7963 72.9999C24.0052 71.9999 21.5176 70.4 20.4231 70.2C20.2241 70.2 20.1246 70.2 20.0251 70.4C19.4281 73.8 18.9306 79.3999 19.6271 83.4999L19.7266 84.1999Z" fill="#F9F9FA"/>
<path d="M66.4928 110.5L66.0948 110.1C63.2092 107.3 59.8261 105 56.244 103.3C56.045 103.2 55.3485 103 55.05 103C54.7515 103 54.5525 102.9 54.0549 102.9C51.7664 102.8 47.4878 102.8 43.7067 103.9C42.7117 104.2 44.2042 105.1 45.8957 106C47.3883 106.9 47.9853 107.3 47.5873 107.8C47.1893 108.3 45.1993 107.2 43.7067 107.2C42.6122 107.2 43.0102 108.3 43.4082 109.1C45.0997 111.8 46.0948 114.9 46.7913 117C46.8908 117.5 47.1893 117.8 47.4878 118.1C47.7863 118.4 48.0848 118.6 48.4828 118.9C48.4828 118.9 48.7813 119.1 48.9803 119.2C49.0798 119.3 49.6768 119.5 49.8758 119.6C53.4579 121.1 57.1395 122 61.0201 122.3H61.6172C63.7067 122.4 65.7963 122.6 67.8858 122.4C69.8759 122.2 72.861 121.9 73.856 121.5C74.055 121.4 74.055 121.3 74.055 121.1C72.2639 118.2 69.3783 113.4 66.4928 110.5Z" fill="#F9F9FA"/>
<path d="M40.5226 101C39.2291 102.7 38.632 104.1 38.433 104.6C38.035 104.2 36.841 103.2 35.7465 101.7C35.1495 100.9 35.05 101 35.647 101.8C36.841 103.5 37.9355 104.5 38.3335 104.8C37.836 105.1 36.443 105.8 34.851 106.4C33.856 106.8 33.9555 106.8 34.851 106.5C36.7415 105.9 38.1346 105.1 38.5326 104.9C38.6321 105.5 38.9306 107 39.0301 108.8C39.0301 109.8 39.1296 109.8 39.2291 108.8C39.2291 106.7 38.9306 105.2 38.8311 104.7C39.4281 104.8 40.9206 104.9 42.7116 105.4C43.7067 105.7 43.7066 105.6 42.8111 105.3C40.9206 104.6 39.3286 104.5 38.8311 104.4C39.0301 103.8 39.7266 102.5 40.7216 101C41.2191 100.2 41.1196 100.2 40.5226 101Z" fill="#F9F9FA"/>
</svg>
