<svg width="42" height="42" viewBox="0 0 42 42" fill="none" xmlns="http://www.w3.org/2000/svg">
<path d="M21.393 16.775C18.9054 16.775 16.9154 18.775 16.9154 21.275C16.9154 23.775 18.9054 25.775 21.393 25.775C23.8805 25.775 25.8706 23.775 25.8706 21.275C25.8706 18.775 23.8805 16.775 21.393 16.775ZM21.393 24.175C19.8009 24.175 18.5074 22.875 18.5074 21.275C18.5074 19.675 19.8009 18.3749 21.393 18.3749C22.985 18.3749 24.2785 19.675 24.2785 21.275C24.2785 22.875 22.985 24.175 21.393 24.175ZM27.0646 16.575C27.0646 15.975 26.5671 15.575 25.9701 15.575C25.3731 15.575 24.8756 16.075 24.8756 16.575C24.8756 17.175 25.3731 17.675 25.9701 17.675C26.6666 17.675 27.0646 17.175 27.0646 16.575ZM30.0497 17.675C29.9502 16.275 29.6517 14.9749 28.6566 13.9749C27.6616 12.9749 26.3681 12.675 24.9751 12.575C23.582 12.475 19.2039 12.475 17.8109 12.575C16.4178 12.675 15.2238 12.9749 14.1293 13.9749C13.1343 14.9749 12.8358 16.275 12.7362 17.675C12.6367 19.075 12.6367 23.4749 12.7362 24.8749C12.8358 26.2749 13.1343 27.475 14.1293 28.575C15.1243 29.575 16.4178 29.8749 17.8109 29.9749C19.2039 30.0749 23.582 30.0749 24.9751 29.9749C26.3681 29.8749 27.6616 29.575 28.6566 28.575C29.6517 27.475 29.9502 26.2749 30.0497 24.8749C30.1492 23.4749 30.1492 19.075 30.0497 17.675ZM28.1591 26.4749C27.8606 27.2749 27.2636 27.875 26.5671 28.175C25.3731 28.675 22.6865 28.4749 21.393 28.4749C20.0994 28.4749 17.4129 28.575 16.2188 28.175C15.4228 27.875 14.8258 27.2749 14.5273 26.4749C14.0298 25.3749 14.1293 22.575 14.1293 21.275C14.1293 20.075 14.0298 17.275 14.5273 16.075C14.8258 15.375 15.4228 14.7749 16.2188 14.4749C17.3134 13.9749 20.0994 14.175 21.393 14.175C22.587 14.175 25.3731 14.0749 26.5671 14.4749C27.2636 14.7749 27.8606 15.375 28.1591 16.075C28.6566 17.275 28.5572 19.975 28.5572 21.275C28.5572 22.575 28.6566 25.2749 28.1591 26.4749Z" fill="#C88A12"/>
<path d="M21 41C32.0457 41 41 32.0457 41 21C41 9.95431 32.0457 1 21 1C9.95431 1 1 9.95431 1 21C1 32.0457 9.95431 41 21 41Z" stroke="#C88A12"/>
</svg>
