<svg width="42" height="42" viewBox="0 0 42 42" fill="none" xmlns="http://www.w3.org/2000/svg">
<path d="M31.2984 15.9C31.0993 15 30.3033 14.2 29.4078 14C27.7162 13.5 21.1491 13.5 21.1491 13.5C21.1491 13.5 14.4824 13.5 12.7909 14C11.8954 14.2 11.1989 15 10.9003 15.9C10.4028 17.5 10.4028 21.1 10.4028 21.1C10.4028 21.1 10.4028 24.6 10.9003 26.3C11.0993 27.2 11.8954 27.9 12.7909 28.2C14.4824 28.6 21.1491 28.6 21.1491 28.6C21.1491 28.6 27.7162 28.6 29.4078 28.2C30.3033 28 30.9998 27.3 31.2984 26.3C31.7959 24.6 31.7959 21.1 31.7959 21.1C31.7959 21.1 31.7959 17.5 31.2984 15.9ZM18.96 24.2V17.9L24.4327 21.1L18.96 24.2Z" fill="#C88A12"/>
<path d="M21 41C32.0457 41 41 32.0457 41 21C41 9.95431 32.0457 1 21 1C9.95431 1 1 9.95431 1 21C1 32.0457 9.95431 41 21 41Z" stroke="#C88A12"/>
</svg>
